<svg width="15" height="15" viewBox="0 0 15 15" fill="none" xmlns="http://www.w3.org/2000/svg">
<g clip-path="url(#clip0_293:1144)">
<path d="M14.7687 2.91659C14.48 2.42034 13.9487 2.08325 13.3333 2.08325H7.5V2.91659H14.7687ZM0 10.4166H15V11.2499H0V10.4166ZM7.5 7.08325H15V7.91659H7.5V7.08325ZM7.5 5.41659H15V6.24992H7.5V5.41659ZM0 8.74992H15V9.58325H0V8.74992ZM1.66667 12.9166H13.3333C13.9487 12.9166 14.48 12.5795 14.7687 12.0833H0.23125C0.52 12.5795 1.05125 12.9166 1.66667 12.9166ZM7.5 3.74992H15V4.58325H7.5V3.74992Z" fill="#B22334"/>
<path d="M0.0283333 11.533C0.0354167 11.5717 0.0433333 11.6105 0.0529167 11.6484C0.06375 11.6905 0.0770833 11.7309 0.09125 11.7717C0.128333 11.8797 0.173333 11.9838 0.23 12.0813L0.23125 12.0834H14.7687L14.7696 12.0817C14.8255 11.9835 14.8718 11.8801 14.9079 11.773C14.9354 11.6948 14.9565 11.6146 14.9712 11.533C14.9883 11.4413 15 11.3472 15 11.2501H0C0 11.3472 0.0116667 11.4409 0.0283333 11.533ZM0 9.58342H15V10.4167H0V9.58342ZM0 7.91675V8.75008H15V7.91675H7.5H0ZM7.5 6.25008H15V7.08341H7.5V6.25008ZM7.5 4.58341H15V5.41675H7.5V4.58341ZM0.23125 2.91675L0.23 2.91883L0.23125 2.91675ZM0.0533333 3.35175C0.06375 3.30925 0.0783333 3.26883 0.0916667 3.228C0.0771971 3.2687 0.0644085 3.30999 0.0533333 3.35175V3.35175ZM7.5 3.75008H15C15 3.653 14.9883 3.55883 14.9712 3.46675C14.9567 3.38513 14.9353 3.30485 14.9075 3.22675C14.8714 3.11917 14.8249 3.01535 14.7687 2.91675H7.5V3.75008Z" fill="#EEEEEE"/>
<path d="M7.5 2.08325H1.66667C1.22464 2.08325 0.800716 2.25885 0.488155 2.57141C0.175595 2.88397 0 3.30789 0 3.74992L0 7.91659H7.5V2.08325Z" fill="#3C3B6E"/>
<path d="M0.83374 3.21925L1.09124 3.40633L0.992907 3.70841L1.24999 3.52175L1.50749 3.70841L1.40916 3.40633L1.66666 3.21925H1.34832L1.24999 2.91675L1.15207 3.21925H0.83374ZM1.66707 4.05258L1.92457 4.23966L1.82624 4.54175L2.08332 4.35508L2.34082 4.54175L2.24249 4.23966L2.49999 4.05258H2.18166L2.08332 3.75008L1.98541 4.05258H1.66707ZM3.33374 4.05258L3.59124 4.23966L3.49291 4.54175L3.74999 4.35508L4.00749 4.54175L3.90916 4.23966L4.16666 4.05258H3.84832L3.74999 3.75008L3.65207 4.05258H3.33374ZM5.00041 4.05258L5.25791 4.23966L5.15957 4.54175L5.41666 4.35508L5.67416 4.54175L5.57582 4.23966L5.83332 4.05258H5.51499L5.41666 3.75008L5.31874 4.05258H5.00041ZM1.66707 5.71925L1.92457 5.90633L1.82624 6.20841L2.08332 6.02175L2.34082 6.20841L2.24249 5.90633L2.49999 5.71925H2.18166L2.08332 5.41675L1.98541 5.71925H1.66707ZM3.33374 5.71925L3.59124 5.90633L3.49291 6.20841L3.74999 6.02175L4.00749 6.20841L3.90916 5.90633L4.16666 5.71925H3.84832L3.74999 5.41675L3.65207 5.71925H3.33374ZM5.00041 5.71925L5.25791 5.90633L5.15957 6.20841L5.41666 6.02175L5.67416 6.20841L5.57582 5.90633L5.83332 5.71925H5.51499L5.41666 5.41675L5.31874 5.71925H5.00041ZM2.50041 3.21925L2.75791 3.40633L2.65957 3.70841L2.91666 3.52175L3.17416 3.70841L3.07582 3.40633L3.33332 3.21925H3.01499L2.91666 2.91675L2.81874 3.21925H2.50041ZM4.16707 3.21925L4.42457 3.40633L4.32624 3.70841L4.58332 3.52175L4.84082 3.70841L4.74249 3.40633L4.99999 3.21925H4.68166L4.58332 2.91675L4.48541 3.21925H4.16707ZM5.83374 3.21925L6.09124 3.40633L5.99291 3.70841L6.24999 3.52175L6.50749 3.70841L6.40916 3.40633L6.66666 3.21925H6.34832L6.24999 2.91675L6.15207 3.21925H5.83374ZM0.83374 4.88591L1.09124 5.073L0.992907 5.37508L1.24999 5.18841L1.50749 5.37508L1.40916 5.073L1.66666 4.88591H1.34832L1.24999 4.58341L1.15207 4.88591H0.83374ZM2.65957 5.37508L2.91666 5.18841L3.17416 5.37508L3.07582 5.073L3.33332 4.88591H3.01499L2.91666 4.58341L2.81874 4.88591H2.50041L2.75791 5.073L2.65957 5.37508ZM4.16707 4.88591L4.42457 5.073L4.32624 5.37508L4.58332 5.18841L4.84082 5.37508L4.74249 5.073L4.99999 4.88591H4.68166L4.58332 4.58341L4.48541 4.88591H4.16707ZM5.83374 4.88591L6.09124 5.073L5.99291 5.37508L6.24999 5.18841L6.50749 5.37508L6.40916 5.073L6.66666 4.88591H6.34832L6.24999 4.58341L6.15207 4.88591H5.83374ZM0.83374 6.55258L1.09124 6.73966L0.992907 7.04175L1.24999 6.85508L1.50749 7.04175L1.40916 6.73966L1.66666 6.55258H1.34832L1.24999 6.25008L1.15207 6.55258H0.83374ZM2.65957 7.04175L2.91666 6.85508L3.17416 7.04175L3.07582 6.73966L3.33332 6.55258H3.01499L2.91666 6.25008L2.81874 6.55258H2.50041L2.75791 6.73966L2.65957 7.04175ZM4.16707 6.55258L4.42457 6.73966L4.32624 7.04175L4.58332 6.85508L4.84082 7.04175L4.74249 6.73966L4.99999 6.55258H4.68166L4.58332 6.25008L4.48541 6.55258H4.16707ZM5.83374 6.55258L6.09124 6.73966L5.99291 7.04175L6.24999 6.85508L6.50749 7.04175L6.40916 6.73966L6.66666 6.55258H6.34832L6.24999 6.25008L6.15207 6.55258H5.83374Z" fill="white"/>
</g>
<defs>
<clipPath id="clip0_293:1144">
<rect width="15" height="15" fill="white"/>
</clipPath>
</defs>
</svg>
