<svg width="100" height="100" viewBox="0 0 100 100" fill="none" xmlns="http://www.w3.org/2000/svg">
<path d="M50.1046 52.0582C49.9837 52.0582 49.8605 52.0442 49.7418 52.0116L11.2442 42.1884C10.6 42.0233 10.1488 41.4465 10.1418 40.7837L10.0395 30.5465C10.0256 30.4628 10.0163 30.3791 10.0163 30.2907C10.0163 29.6233 10.4674 29.0395 11.1163 28.8721L49.6349 18.9302C49.8744 18.8675 50.1279 18.8675 50.3674 18.9302L88.886 28.8721C89.5325 29.0395 89.986 29.6233 89.986 30.2907C89.986 30.3442 89.9837 30.3977 89.9767 30.4488L89.8744 40.5605C89.8674 41.2209 89.4209 41.7954 88.7814 41.9628L50.4791 52.0093C50.3535 52.0419 50.2302 52.0582 50.1046 52.0582ZM13.0605 39.6256L50.1 49.0768L86.9535 39.4093L87.0279 32.1861L50.3651 41.6512C50.1256 41.714 49.8721 41.714 49.6325 41.6512L12.986 32.1907L13.0605 39.6256ZM17.3442 30.2907L50 38.7186L82.6558 30.2907L50 21.8605L17.3442 30.2907Z" fill="#212121"/>
<path d="M50.1907 93.3954C50.0488 93.3954 49.9046 93.3744 49.7674 93.3326L16.4953 83.2977C15.8791 83.1116 15.4558 82.5465 15.4535 81.9023L15.2698 42.5535C15.2674 42.1047 15.4698 41.6814 15.8209 41.4023C16.1698 41.1233 16.6302 41.0186 17.0651 41.1186L49.8744 48.6954C49.9651 48.6768 50.0605 48.6675 50.1581 48.6675C50.1581 48.6675 50.1581 48.6675 50.1605 48.6675C50.2698 48.6675 50.3767 48.6791 50.4791 48.7023L82.9581 40.6907C83.3953 40.5837 83.8581 40.6814 84.2116 40.9605C84.5651 41.2372 84.7744 41.6628 84.7744 42.114L84.779 81.6721C84.779 82.314 84.3604 82.8814 83.7465 83.0721L50.6279 93.3279C50.4837 93.3721 50.3372 93.3954 50.1907 93.3954ZM18.3791 80.807L48.7302 89.9605L48.693 51.4326L18.207 44.3907L18.3791 80.807ZM51.6232 51.4395L51.6605 89.9419L81.8442 80.5954L81.8395 43.9884L51.6232 51.4395Z" fill="#212121"/>
<path d="M31.7488 87.835H31.7465C30.9372 87.8327 30.2837 87.1769 30.2837 86.3676L30.3698 47.2513L28.3233 46.6652C27.6953 46.4838 27.2628 45.9094 27.2628 45.2559V45.1397L27.2907 35.4141C27.293 34.7815 27.7 34.2234 28.3 34.0257L49.6488 27.0559C50.0418 26.928 50.4488 26.9745 50.786 27.1536L71.9046 34.0257C72.5093 34.221 72.9186 34.7862 72.9162 35.4234L72.8883 44.9466C72.886 45.5815 72.4744 46.1443 71.8674 46.3373L69.779 47.0048L69.8907 86.2792C69.893 87.0885 69.2395 87.7466 68.4302 87.7489C68.4279 87.7489 68.4279 87.7489 68.4256 87.7489C67.6186 87.7489 66.9628 87.0955 66.9604 86.2885L66.8488 45.942C66.8465 45.3024 67.2581 44.7373 67.8674 44.542L69.9628 43.8699L69.9837 36.4815L69.7604 36.4094L50.0721 30.0001L30.2186 36.4815L30.1953 44.1536L32.2395 44.7373C32.8698 44.9164 33.3023 45.4931 33.3023 46.149L33.2139 86.3722C33.2116 87.1792 32.5558 87.835 31.7488 87.835Z" fill="#5DC7D1"/>
<path d="M50.7209 30.0442C50.2535 30.0442 49.8163 29.8187 49.5418 29.4489C41.1302 28.2442 34.6232 26.1652 30.1953 23.2675C26.2767 20.7047 24.1325 17.5094 24.1535 14.2675C24.1791 10.4233 27.3674 7.23726 31.7349 6.69075C38.3372 5.86284 47.6442 11.0047 52.1372 28.207C52.3418 28.9908 51.8721 29.7908 51.0907 29.9954C50.9674 30.028 50.8418 30.0442 50.7209 30.0442ZM33.1279 9.53494C32.7767 9.53494 32.4325 9.55587 32.0977 9.59773C29.1604 9.96517 27.0977 11.8931 27.0814 14.2861C27.0558 18.3256 32.707 23.8024 48.5511 26.3349C44.6535 13.9187 38.1325 9.53494 33.1279 9.53494Z" fill="#5DC7D1"/>
<path d="M50.2302 30.0442C50.1093 30.0442 49.986 30.0279 49.8628 29.9977C49.079 29.7953 48.607 28.9976 48.8093 28.2139C53.2372 11.0465 62.4209 5.88835 68.9395 6.68835C73.2767 7.2209 76.4512 10.4023 76.4837 14.2535C76.5116 17.4907 74.3953 20.6883 70.5256 23.2558C66.1512 26.1581 59.7209 28.2395 51.4093 29.4465C51.1372 29.8186 50.6977 30.0442 50.2302 30.0442ZM67.6046 9.53486C62.6744 9.53486 56.2372 13.9186 52.3884 26.3325C68.0209 23.7976 73.5907 18.3186 73.5535 14.279C73.5326 11.8767 71.4884 9.95114 68.5837 9.59532C68.2651 9.55579 67.9372 9.53486 67.6046 9.53486Z" fill="#5DC7D1"/>
</svg>
