<svg width="100" height="100" viewBox="0 0 100 100" fill="none" xmlns="http://www.w3.org/2000/svg">
<path d="M70.5837 90.7094H65.2953C62.6395 90.7094 60.4791 88.5512 60.4791 85.8977V84.9582C59.6465 85.0326 58.8116 85.0698 57.9791 85.0698H49.6977C48.5023 85.0698 47.3116 84.9954 46.1419 84.8466V89.2442C46.1419 90.0535 45.486 90.7094 44.6767 90.7094H39.3884C36.7326 90.7094 34.5721 88.5512 34.5721 85.8977V80.6698C30.7721 78.2466 27.5837 74.928 25.3186 71.0256C22.8395 66.7559 21.5302 61.8721 21.5302 56.9047C21.5302 54.7489 21.7721 52.628 22.2395 50.5768H19.5116C19.4953 50.5768 19.4791 50.5768 19.4628 50.5768C17.807 50.521 15.193 49.7605 13.5605 47.5861H10.2372C9.42791 47.5861 8.77209 46.9303 8.77209 46.121C8.77209 45.3117 9.42791 44.6559 10.2372 44.6559H12.2721C12.1512 44.0605 12.0837 43.4094 12.0837 42.7001C12.0837 40.521 13.014 39.2024 13.7954 38.4791C14.7791 37.5675 16.0977 37.0652 17.5047 37.0652C20.0465 37.0652 22.7465 38.8582 22.7465 42.1814C22.7465 43.5768 22.2535 44.8001 21.3186 45.7163C20.3721 46.6442 19.1395 47.1117 18.0884 47.3489C18.7744 47.5861 19.3558 47.6373 19.5465 47.6489H23.0791C24.4558 43.6814 26.7233 40.0466 29.7814 36.9884C33.8023 32.9652 38.8698 30.2838 44.4349 29.2326C45.2302 29.0838 45.9953 29.6047 46.1465 30.4001C46.2977 31.1954 45.7744 31.9605 44.9791 32.1117C39.9953 33.0512 35.4581 35.4535 31.8558 39.0582C27.0884 43.8256 24.4605 50.1652 24.4605 56.907C24.4605 65.7512 29.1837 74.0628 36.7884 78.5954C37.2326 78.8605 37.5023 79.3373 37.5023 79.8535V85.9C37.5023 86.9373 38.3488 87.7814 39.3884 87.7814H43.2116V83.1791C43.2116 83.1489 43.2116 83.1187 43.2116 83.0884V80.0233C43.2116 79.214 43.8674 78.5582 44.6767 78.5582C45.486 78.5582 46.1419 79.214 46.1419 80.0233V81.8884C47.307 82.0535 48.4977 82.1373 49.6977 82.1373H57.9791C58.8093 82.1373 59.6465 82.0954 60.4791 82.014V80.021C60.4791 79.2117 61.1349 78.5559 61.9442 78.5559C62.7535 78.5559 63.4093 79.2117 63.4093 80.021V83.2559C63.4116 83.2931 63.4116 83.3326 63.4093 83.3698V85.9C63.4093 86.9373 64.2558 87.7814 65.2953 87.7814H69.1186V80.4466C69.1186 79.9047 69.4163 79.407 69.8953 79.1535C72.0651 77.9977 74.0605 76.5163 75.8256 74.7535C79.3 71.2791 81.6698 66.9163 82.6744 62.1419C82.8163 61.4628 83.4163 60.9791 84.1093 60.9791H85.2884C86.9488 60.9791 88.3 59.628 88.3 57.9675V53.5582C88.3 51.8977 86.9488 50.5466 85.2884 50.5466H83.5163C82.8721 50.5466 82.3023 50.1256 82.114 49.5094C80.307 43.5884 76.3791 38.5489 71.0581 35.3187C70.6419 35.0652 70.3767 34.621 70.3558 34.1349C70.3419 33.8559 70.1326 28.2721 73.5698 23.7396C70.393 23.7791 67.9256 24.4791 65.9419 25.8814C65.2814 26.3489 64.3674 26.1907 63.9 25.5303C63.4326 24.8698 63.5907 23.9559 64.2512 23.4884C68.4698 20.5094 73.5698 20.628 77.0419 20.9791C77.6372 21.0396 78.1372 21.4559 78.3023 22.0303C78.4674 22.6047 78.2674 23.2233 77.7953 23.5907C73.993 26.5559 73.3837 31.421 73.293 33.2652C78.5605 36.6814 82.5233 41.7233 84.5767 47.6187H85.286C88.5628 47.6187 91.2279 50.2838 91.2279 53.5605V57.9698C91.2279 61.2466 88.5628 63.9117 85.286 63.9117H85.2698C84.0256 68.7884 81.4907 73.2349 77.8953 76.828C76.1372 78.5861 74.1744 80.0931 72.0465 81.314V89.2512C72.0488 90.0535 71.393 90.7094 70.5837 90.7094ZM15.3163 44.6535H15.9651C15.986 44.6535 16.0093 44.6535 16.0326 44.6535C16.6744 44.6535 18.4047 44.4721 19.2721 43.614C19.6442 43.2466 19.8163 42.7907 19.8163 42.1768C19.8163 40.4512 18.3628 39.9908 17.5047 39.9908C16.8372 39.9908 16.2279 40.2163 15.786 40.6256C15.2721 41.1001 15.014 41.7977 15.014 42.6977C15.014 43.4628 15.1256 44.107 15.3163 44.6535Z" fill="#212121"/>
<path d="M53.414 35.9419C46.0651 35.9419 40.0884 29.9652 40.0884 22.6163C40.0884 15.2675 46.0651 9.29074 53.414 9.29074C60.7628 9.29074 66.7395 15.2675 66.7395 22.6163C66.7395 29.9652 60.7605 35.9419 53.414 35.9419ZM53.414 12.221C47.6814 12.221 43.0186 16.8838 43.0186 22.6163C43.0186 28.3489 47.6814 33.0117 53.414 33.0117C59.1465 33.0117 63.8093 28.3489 63.8093 22.6163C63.8093 16.8838 59.1465 12.221 53.414 12.221Z" fill="#5DC7D1"/>
<path d="M61.7721 38.7326C61.6046 38.7326 61.4349 38.7047 61.2674 38.6419C61.2605 38.6396 59.086 37.9186 53.1581 37.9163C53.1535 37.9163 53.1465 37.9163 53.1418 37.9163C47.4256 37.9163 45.7372 38.5931 45.7186 38.6C45.7511 38.5861 45.7651 38.5791 45.7651 38.5791L44.4651 35.9535C44.7907 35.7931 46.7418 34.9861 53.1581 34.9884C59.6256 34.9907 62.0232 35.8 62.2744 35.8907C63.0349 36.1698 63.4232 37.0117 63.1465 37.7698C62.9302 38.3628 62.3697 38.7326 61.7721 38.7326Z" fill="#212121"/>
<path d="M70.5651 41.3954C68.814 41.3954 67.3954 42.814 67.3954 44.5651C67.3954 46.3163 68.814 47.7349 70.5651 47.7349C72.314 47.7349 73.7349 46.3163 73.7349 44.5651C73.7349 42.814 72.314 41.3954 70.5651 41.3954Z" fill="#212121"/>
</svg>
