<svg width="500" height="361" viewBox="0 0 500 361" fill="none" xmlns="http://www.w3.org/2000/svg">
<g clip-path="url(#clip0_145:2)">
<path opacity="0.1" d="M5.40054 195.958C13.3123 229.774 30.061 259.006 56.5262 273.193C111.539 302.639 235.598 287.449 328.183 270.003C374.969 261.216 417.436 236.941 448.747 201.085L5.40054 195.958Z" fill="#5DC7D1"/>
<path opacity="0.1" d="M490.931 36.7833H440.129C438.965 36.7833 437.848 36.3209 437.025 35.4979C436.202 34.6748 435.74 33.5585 435.74 32.3945C435.74 31.2305 436.202 30.1142 437.025 29.2911C437.848 28.468 438.965 28.0056 440.129 28.0056H448.911C447.771 27.9689 446.69 27.4902 445.896 26.6707C445.103 25.8512 444.659 24.7552 444.659 23.6145C444.659 22.4738 445.103 21.3778 445.896 20.5583C446.69 19.7389 447.771 19.2601 448.911 19.2234H442.64C441.5 19.1867 440.419 18.7079 439.625 17.8884C438.832 17.069 438.388 15.973 438.388 14.8323C438.388 13.6916 438.832 12.5956 439.625 11.7761C440.419 10.9566 441.5 10.4779 442.64 10.4412H469.155C463.271 7.70667 456.394 5.76063 448.469 4.73976C376.169 -4.54381 350.356 1.59966 341.25 7.92999C330.016 15.7233 317.483 21.4566 304.088 24.2184C259.48 33.4199 176.055 44.4946 100.442 20.6727C62.8612 8.82325 34.933 28.8397 18.1889 62.2733H499.749C499.12 52.5567 497.238 43.5876 493.784 35.7306C492.99 36.4127 491.977 36.7864 490.931 36.7833Z" fill="#5DC7D1"/>
<path opacity="0.1" d="M1.08924 125.376C-0.861952 145.042 -0.199921 164.88 3.05807 184.372L449.089 200.688C461.506 186.405 471.931 170.505 480.079 153.423L1.08924 125.376ZM177.5 167.46H168.718C169.882 167.46 170.998 167.922 171.821 168.745C172.644 169.568 173.106 170.685 173.106 171.849C173.106 173.013 172.644 174.129 171.821 174.952C170.998 175.775 169.882 176.237 168.718 176.237H117.915C116.751 176.237 115.635 175.775 114.812 174.952C113.989 174.129 113.527 173.013 113.527 171.849C113.527 170.685 113.989 169.568 114.812 168.745C115.635 167.922 116.751 167.46 117.915 167.46H126.698C125.558 167.423 124.476 166.944 123.683 166.125C122.889 165.305 122.446 164.209 122.446 163.069C122.446 161.928 122.889 160.832 123.683 160.012C124.476 159.193 125.558 158.714 126.698 158.677H120.427C119.286 158.641 118.205 158.162 117.412 157.342C116.618 156.523 116.175 155.427 116.175 154.286C116.175 153.146 116.618 152.05 117.412 151.23C118.205 150.411 119.286 149.932 120.427 149.895H171.229C172.369 149.932 173.45 150.411 174.243 151.23C175.037 152.05 175.481 153.146 175.481 154.286C175.481 155.427 175.037 156.523 174.243 157.342C173.45 158.162 172.369 158.641 171.229 158.677H177.5C178.64 158.714 179.721 159.193 180.515 160.012C181.308 160.832 181.752 161.928 181.752 163.069C181.752 164.209 181.308 165.305 180.515 166.125C179.721 166.944 178.64 167.423 177.5 167.46Z" fill="#5DC7D1"/>
<path opacity="0.1" d="M499.772 62.5649L12.8156 74.4143C6.89086 89.6409 2.98511 106.845 1.16212 124.697H491.24C494.439 114.216 496.806 103.498 498.318 92.6442C499.777 82.1575 500.36 72.0126 499.772 62.5649ZM100.023 101.376H91.2405C91.8169 101.376 92.3876 101.49 92.92 101.71C93.4525 101.931 93.9363 102.254 94.3439 102.662C94.7514 103.069 95.0747 103.553 95.2953 104.086C95.5158 104.618 95.6293 105.189 95.6293 105.765C95.6293 106.342 95.5158 106.912 95.2953 107.445C95.0747 107.977 94.7514 108.461 94.3439 108.869C93.9363 109.276 93.4525 109.599 92.92 109.82C92.3876 110.041 91.8169 110.154 91.2405 110.154H40.4384C39.2744 110.154 38.1581 109.692 37.335 108.869C36.5119 108.046 36.0496 106.929 36.0496 105.765C36.0496 104.601 36.5119 103.485 37.335 102.662C38.1581 101.839 39.2744 101.376 40.4384 101.376H49.2206C48.0805 101.34 46.9994 100.861 46.2059 100.041C45.4124 99.2219 44.9687 98.1259 44.9687 96.9852C44.9687 95.8445 45.4124 94.7485 46.2059 93.9291C46.9994 93.1096 48.0805 92.6308 49.2206 92.5941H42.9496C41.8095 92.5574 40.7283 92.0786 39.9348 91.2592C39.1413 90.4397 38.6976 89.3437 38.6976 88.203C38.6976 87.0623 39.1413 85.9663 39.9348 85.1468C40.7283 84.3273 41.8095 83.8486 42.9496 83.8119H93.7517C94.8918 83.8486 95.9729 84.3273 96.7664 85.1468C97.5599 85.9663 98.0036 87.0623 98.0036 88.203C98.0036 89.3437 97.5599 90.4397 96.7664 91.2592C95.9729 92.0786 94.8918 92.5574 93.7517 92.5941H100.023C101.163 92.6308 102.244 93.1096 103.037 93.9291C103.831 94.7485 104.275 95.8445 104.275 96.9852C104.275 98.1259 103.831 99.2219 103.037 100.041C102.244 100.861 101.163 101.34 100.023 101.376Z" fill="#5DC7D1"/>
<path opacity="0.1" d="M256.868 360.446C344.669 360.446 415.846 356.593 415.846 351.841C415.846 347.089 344.669 343.237 256.868 343.237C169.067 343.237 97.8899 347.089 97.8899 351.841C97.8899 356.593 169.067 360.446 256.868 360.446Z" fill="#5DC7D1"/>
<path d="M388.848 288.57C388.848 288.57 391.35 291.847 387.69 296.773C384.031 301.7 381.014 305.888 382.221 308.974C382.221 308.974 387.74 299.79 392.248 299.663C396.755 299.535 393.788 294.094 388.848 288.57Z" fill="#5DC7D1"/>
<path opacity="0.1" d="M388.848 288.57C389.064 288.887 389.235 289.232 389.358 289.595C393.743 294.75 396.076 299.558 391.865 299.676C387.936 299.79 383.229 306.809 382.103 308.582C382.139 308.72 382.183 308.855 382.235 308.987C382.235 308.987 387.754 299.804 392.261 299.676C396.769 299.549 393.788 294.094 388.848 288.57Z" fill="black"/>
<path d="M393.501 292.745C393.501 293.898 393.373 294.832 393.214 294.832C393.054 294.832 392.922 293.898 392.922 292.745C392.922 291.591 393.086 292.134 393.246 292.134C393.405 292.134 393.501 291.591 393.501 292.745Z" fill="#FFD037"/>
<path d="M395.096 294.121C394.084 294.672 393.205 295.005 393.127 294.864C393.05 294.722 393.811 294.162 394.823 293.61C395.834 293.059 395.433 293.46 395.511 293.61C395.588 293.761 396.108 293.569 395.096 294.121Z" fill="#FFD037"/>
<path d="M375.622 288.57C375.622 288.57 373.12 291.847 376.78 296.773C380.439 301.7 383.452 305.888 382.249 308.974C382.249 308.974 376.725 299.79 372.222 299.663C367.719 299.535 370.677 294.094 375.622 288.57Z" fill="#5DC7D1"/>
<path opacity="0.1" d="M375.622 288.57C375.404 288.886 375.232 289.231 375.112 289.595C370.727 294.75 368.389 299.558 372.605 299.676C376.529 299.79 381.264 306.809 382.367 308.582C382.331 308.718 382.285 308.851 382.235 308.987C382.235 308.987 376.711 299.804 372.209 299.676C367.706 299.549 370.677 294.094 375.622 288.57Z" fill="black"/>
<path d="M370.969 292.745C370.969 293.898 371.096 294.832 371.256 294.832C371.416 294.832 371.548 293.898 371.548 292.745C371.548 291.591 371.384 292.134 371.224 292.134C371.065 292.134 370.969 291.591 370.969 292.745Z" fill="#FFD037"/>
<path d="M369.369 294.121C370.381 294.672 371.265 295.005 371.343 294.864C371.42 294.722 370.659 294.162 369.647 293.61C368.636 293.059 369.037 293.46 368.959 293.61C368.882 293.761 368.358 293.569 369.369 294.121Z" fill="#FFD037"/>
<path d="M371.766 308.559C371.766 308.559 378.767 308.34 380.881 306.841C382.996 305.341 391.651 303.541 392.175 305.929C392.699 308.317 402.693 317.911 394.791 317.975C386.888 318.038 376.429 316.744 374.323 315.464C372.218 314.183 371.766 308.559 371.766 308.559Z" fill="#A8A8A8"/>
<path opacity="0.2" d="M394.928 317.159C387.025 317.223 376.565 315.928 374.46 314.648C372.856 313.668 372.218 310.163 372.003 308.55H371.771C371.771 308.55 372.227 314.192 374.319 315.477C376.411 316.762 386.884 318.052 394.786 317.988C397.065 317.988 397.858 317.159 397.812 315.956C397.493 316.694 396.623 317.145 394.928 317.159Z" fill="black"/>
<path d="M122.701 311.12C123.537 310.438 124.147 309.518 124.451 308.481C124.674 307.438 124.228 306.203 123.229 305.797C122.108 305.369 120.91 306.148 119.998 306.932C119.087 307.716 118.052 308.614 116.863 308.445C117.474 307.891 117.932 307.188 118.191 306.404C118.45 305.621 118.501 304.783 118.339 303.974C118.287 303.639 118.146 303.324 117.929 303.063C117.305 302.397 116.179 302.68 115.432 303.204C113.062 304.872 112.401 308.094 112.387 310.988C112.15 309.944 112.351 308.855 112.346 307.798C112.342 306.741 112.045 305.519 111.143 304.959C110.583 304.659 109.955 304.512 109.32 304.53C108.254 304.489 107.069 304.598 106.34 305.373C105.428 306.344 105.67 307.966 106.458 309.019C107.246 310.072 108.44 310.756 109.539 311.489C110.423 312.015 111.177 312.733 111.745 313.59C111.809 313.712 111.864 313.838 111.909 313.969H118.585C120.079 313.209 121.464 312.251 122.701 311.12Z" fill="#5DC7D1"/>
<path d="M69.6381 318.312C69.6381 318.312 63.2303 296.568 70.8367 280.567C74.0747 273.874 75.0535 266.311 73.6259 259.015C72.9216 255.559 71.901 252.175 70.5769 248.906" stroke="#535461" stroke-width="2" stroke-miterlimit="10"/>
<path d="M75.2939 238.789C75.2939 241.455 70.4721 249.184 70.4721 249.184C70.4721 249.184 65.6458 241.437 65.6458 238.789C65.6843 237.535 66.2095 236.345 67.11 235.472C68.0104 234.599 69.2155 234.111 70.4699 234.111C71.7242 234.111 72.9293 234.599 73.8298 235.472C74.7303 236.345 75.2554 237.535 75.2939 238.789Z" fill="#5DC7D1"/>
<path d="M83.2696 253.55C81.8249 255.788 73.5713 259.653 73.5713 259.653C73.5713 259.653 73.7217 250.538 75.171 248.305C75.8831 247.269 76.9713 246.552 78.204 246.306C79.4368 246.06 80.7169 246.305 81.7719 246.988C82.827 247.671 83.5738 248.739 83.8535 249.965C84.1332 251.19 83.9237 252.477 83.2696 253.55Z" fill="#5DC7D1"/>
<path d="M82.9231 278.776C80.5441 279.974 71.4702 279.145 71.4702 279.145C71.4702 279.145 76.2009 271.356 78.5799 270.158C79.1472 269.857 79.7688 269.673 80.4083 269.616C81.0478 269.559 81.6922 269.629 82.3039 269.824C82.9157 270.019 83.4823 270.334 83.9708 270.751C84.4592 271.168 84.8597 271.678 85.1486 272.251C85.4375 272.824 85.6092 273.449 85.6535 274.09C85.6978 274.73 85.6139 275.373 85.4066 275.981C85.1994 276.589 84.873 277.149 84.4465 277.629C84.0201 278.109 83.5022 278.499 82.9231 278.776Z" fill="#5DC7D1"/>
<path d="M78.3611 297.803C76.2191 299.389 67.136 300.082 67.136 300.082C67.136 300.082 70.4812 291.61 72.605 290.024C73.1106 289.609 73.6952 289.302 74.3232 289.12C74.9513 288.938 75.6097 288.886 76.2585 288.967C76.9073 289.047 77.533 289.259 78.0976 289.588C78.6623 289.918 79.1541 290.359 79.5432 290.884C79.9323 291.409 80.2106 292.008 80.3612 292.645C80.5118 293.281 80.5316 293.941 80.4193 294.585C80.3071 295.229 80.0651 295.844 79.7082 296.391C79.3513 296.939 78.8868 297.409 78.3429 297.771L78.3611 297.803Z" fill="#5DC7D1"/>
<path d="M63.4446 260.168C65.3542 262.023 74.2594 263.95 74.2594 263.95C74.2594 263.95 72.0764 255.104 70.1577 253.245C69.7072 252.784 69.169 252.419 68.575 252.17C67.9809 251.92 67.343 251.793 66.6988 251.794C66.0546 251.795 65.4172 251.925 64.8241 252.177C64.231 252.428 63.6942 252.796 63.2455 253.258C62.7967 253.72 62.445 254.268 62.211 254.868C61.9771 255.468 61.8657 256.109 61.8834 256.753C61.9012 257.397 62.0476 258.031 62.3142 258.617C62.5807 259.204 62.962 259.731 63.4355 260.168H63.4446Z" fill="#5DC7D1"/>
<path d="M58.3902 282.486C60.7692 283.684 69.8431 282.855 69.8431 282.855C69.8431 282.855 65.1125 275.071 62.7335 273.867C61.5943 273.322 60.2865 273.245 59.091 273.652C57.8955 274.06 56.9075 274.92 56.339 276.048C55.7706 277.176 55.667 278.482 56.0505 279.686C56.434 280.889 57.274 281.895 58.3902 282.486Z" fill="#5DC7D1"/>
<path d="M56.4579 304.854C58.5999 306.435 67.6784 307.132 67.6784 307.132C67.6784 307.132 64.3378 298.66 62.2094 297.074C61.1787 296.387 59.9231 296.122 58.7026 296.334C57.482 296.547 56.39 297.221 55.6526 298.217C54.9153 299.212 54.589 300.453 54.7415 301.683C54.8939 302.913 55.5134 304.036 56.4716 304.822L56.4579 304.854Z" fill="#5DC7D1"/>
<path d="M75.2939 238.789C75.2939 241.455 70.4721 249.184 70.4721 249.184C70.4721 249.184 65.6458 241.437 65.6458 238.789C65.6843 237.535 66.2095 236.345 67.11 235.472C68.0104 234.599 69.2155 234.111 70.4699 234.111C71.7242 234.111 72.9293 234.599 73.8298 235.472C74.7303 236.345 75.2554 237.535 75.2939 238.789Z" fill="#5DC7D1"/>
<path d="M83.2696 253.55C81.8249 255.788 73.5713 259.653 73.5713 259.653C73.5713 259.653 73.7217 250.538 75.171 248.305C75.8831 247.269 76.9713 246.552 78.204 246.306C79.4368 246.06 80.7169 246.305 81.7719 246.988C82.827 247.671 83.5738 248.739 83.8535 249.965C84.1332 251.19 83.9237 252.477 83.2696 253.55Z" fill="#5DC7D1"/>
<path d="M82.9231 278.776C80.5441 279.974 71.4702 279.145 71.4702 279.145C71.4702 279.145 76.2009 271.356 78.5799 270.158C79.1472 269.857 79.7688 269.673 80.4083 269.616C81.0478 269.559 81.6922 269.629 82.3039 269.824C82.9157 270.019 83.4823 270.334 83.9708 270.751C84.4592 271.168 84.8597 271.678 85.1486 272.251C85.4375 272.824 85.6092 273.449 85.6535 274.09C85.6978 274.73 85.6139 275.373 85.4066 275.981C85.1994 276.589 84.873 277.149 84.4465 277.629C84.0201 278.109 83.5022 278.499 82.9231 278.776Z" fill="#5DC7D1"/>
<path d="M78.3611 297.803C76.2191 299.389 67.136 300.082 67.136 300.082C67.136 300.082 70.4812 291.61 72.605 290.024C73.1106 289.609 73.6952 289.302 74.3232 289.12C74.9513 288.938 75.6097 288.886 76.2585 288.967C76.9073 289.047 77.533 289.259 78.0976 289.588C78.6623 289.918 79.1541 290.359 79.5432 290.884C79.9323 291.409 80.2106 292.008 80.3612 292.645C80.5118 293.281 80.5316 293.941 80.4193 294.585C80.3071 295.229 80.0651 295.844 79.7082 296.391C79.3513 296.939 78.8868 297.409 78.3429 297.771L78.3611 297.803Z" fill="#5DC7D1"/>
<path d="M63.4446 260.168C65.3542 262.023 74.2594 263.95 74.2594 263.95C74.2594 263.95 72.0764 255.104 70.1577 253.245C69.7072 252.784 69.169 252.419 68.575 252.17C67.9809 251.92 67.343 251.793 66.6988 251.794C66.0546 251.795 65.4172 251.925 64.8241 252.177C64.231 252.428 63.6942 252.796 63.2455 253.258C62.7967 253.72 62.445 254.268 62.211 254.868C61.9771 255.468 61.8657 256.109 61.8834 256.753C61.9012 257.397 62.0476 258.031 62.3142 258.617C62.5807 259.204 62.962 259.731 63.4355 260.168H63.4446Z" fill="#5DC7D1"/>
<path d="M58.3902 282.486C60.7692 283.684 69.8431 282.855 69.8431 282.855C69.8431 282.855 65.1125 275.071 62.7335 273.867C61.5943 273.322 60.2865 273.245 59.091 273.652C57.8955 274.06 56.9075 274.92 56.339 276.048C55.7706 277.176 55.667 278.482 56.0505 279.686C56.434 280.889 57.274 281.895 58.3902 282.486Z" fill="#5DC7D1"/>
<path d="M56.4579 304.854C58.5999 306.435 67.6784 307.132 67.6784 307.132C67.6784 307.132 64.3378 298.66 62.2094 297.074C61.1787 296.387 59.9231 296.122 58.7026 296.334C57.482 296.547 56.39 297.221 55.6526 298.217C54.9153 299.212 54.589 300.453 54.7415 301.683C54.8939 302.913 55.5134 304.036 56.4716 304.822L56.4579 304.854Z" fill="#5DC7D1"/>
<path d="M54.4845 316.945C54.4845 316.945 62.2869 315.395 64.3651 313.331C66.4433 311.266 75.8044 307.652 76.8435 310.232C77.8826 312.811 90.8805 321.589 82.039 323.138C73.1975 324.688 61.2433 325.203 58.6455 324.168C56.0477 323.134 54.4845 316.945 54.4845 316.945Z" fill="#A8A8A8"/>
<path opacity="0.2" d="M82.0527 322.172C73.2157 323.722 61.2569 324.237 58.6592 323.207C56.6812 322.418 55.3049 318.649 54.7625 316.885L54.4845 316.945C54.4845 316.945 56.0477 323.138 58.6455 324.168C61.2433 325.198 73.2021 324.683 82.039 323.138C84.5912 322.683 85.3204 321.639 85.0469 320.313C84.8418 321.174 83.9531 321.839 82.0527 322.172Z" fill="black"/>
<path d="M330.084 119.397C332.531 116.662 331.574 112.401 331.574 112.401C331.574 112.401 320.025 82.9687 318.745 82.6451C317.464 82.3215 314.251 74.8974 314.251 74.8974C314.251 74.8974 283.456 45.6248 282.349 45.6248C281.241 45.6248 269.998 37.5399 268.558 37.3803C267.118 37.2208 264.866 36.4096 262.46 35.1016C260.054 33.7936 235.671 35.2657 234.71 36.3959C233.748 37.5262 229.241 38.3374 229.241 38.3374C229.241 38.3374 220.098 38.8205 218.813 40.4384C217.528 42.0563 208.071 42.9131 208.071 42.9131C208.071 42.9131 203.418 44.6449 209.735 49.2434C207.711 49.5625 205.346 49.8086 202.944 49.9817C202.343 50.0228 201.732 50.0638 201.121 50.0957H200.761C200.358 48.8762 199.571 47.8196 198.519 47.0832C197.831 46.7095 197.12 46.3792 196.39 46.0942C195.261 45.4936 194.203 44.7674 193.237 43.9294C188.561 40.2111 183.572 36.9052 178.325 34.0488C177.515 33.5417 176.611 33.2023 175.668 33.0507C173.712 32.8639 171.967 34.2357 170.053 34.696C166.689 35.5027 163.299 33.4518 159.84 33.4199C155.519 33.3789 151.586 36.7423 150.269 40.8896C149.781 42.4255 149.562 44.1345 148.51 45.3514C147.142 46.9419 144.832 47.1743 142.959 48.1177C141.601 48.8257 140.464 49.892 139.67 51.2008C138.876 52.5097 138.456 54.0111 138.456 55.5419V55.5783C138.456 55.8199 138.456 56.0614 138.497 56.303C138.711 58.2536 139.613 60.0538 140.274 61.9041C140.953 63.8 141.382 65.7764 141.55 67.7832C141.553 67.8044 141.553 67.8258 141.55 67.847C141.578 68.1797 141.601 68.5124 141.614 68.8497C141.614 68.918 141.614 68.991 141.614 69.0639C141.614 69.3829 141.614 69.7065 141.614 70.0301C141.614 71.771 141.555 73.5256 141.56 75.2666V75.3577V76.1462C141.56 76.21 141.56 76.2738 141.56 76.3376C141.56 76.57 141.56 76.7933 141.587 77.0394V77.2855C141.587 77.4997 141.619 77.7185 141.642 77.9327C141.642 78.0239 141.642 78.1196 141.664 78.2107C141.664 78.4204 141.714 78.6254 141.742 78.8305L141.783 79.1222C141.815 79.3273 141.851 79.5324 141.888 79.7375L141.942 80.02C141.988 80.2388 142.043 80.4758 142.097 80.6763C142.12 80.7538 142.134 80.8267 142.152 80.9042C142.234 81.208 142.325 81.4997 142.425 81.7792C143.108 83.6929 144.235 85.4173 145.713 86.8109C147.191 88.2045 148.979 89.2275 150.93 89.7958C151.664 89.9983 152.424 90.0935 153.186 90.0784C154.553 90.0465 155.861 89.6226 156.672 88.6883C156.873 88.9162 157.069 89.1441 157.278 89.372C160.251 92.6046 163.959 95.0729 168.088 96.5675C172.218 98.062 176.647 98.5388 181 97.9574C185.352 97.376 189.501 95.7536 193.093 93.2276C196.686 90.7017 199.616 87.3467 201.636 83.4472C202.115 83.3424 202.589 83.2467 203.067 83.1556C203.897 83.0006 204.731 82.8548 205.569 82.6998L206.376 82.5722L206.695 82.5175C210.797 81.8704 214.78 81.4374 217.633 81.1503L206.358 82.5494C206.358 82.5494 203.623 95.6795 202.835 97.1333C202.046 98.5872 205.569 101.012 205.569 101.012C205.569 101.012 208.618 104.731 208.618 105.865C208.618 107 212.146 110.231 213.107 112.009C213.23 112.234 213.383 112.441 213.563 112.624C212.851 112.9 212.194 113.299 211.622 113.805C209.393 115.915 210.136 119.615 209.115 122.514C208.477 124.337 207.142 125.813 205.856 127.249C205.395 127.718 205.007 128.254 204.708 128.84C204.541 129.228 204.438 129.64 204.402 130.061C204.38 130.294 204.371 130.529 204.375 130.763V130.845C204.375 131.027 204.375 131.205 204.412 131.383C204.412 131.46 204.412 131.538 204.412 131.615C204.635 133.52 205.282 135.361 205.478 137.266C205.674 139.171 205.437 141.09 205.829 142.945C205.965 143.592 206.176 144.22 206.458 144.818L199.932 152.11C199.932 152.11 199.891 152.47 199.877 153.063C194.435 157.579 186.022 166.102 189.026 173.617C189.354 174.44 189.658 175.229 189.937 175.982C187.727 177.39 186.998 179.063 190.311 180.731C190.835 180.995 191.341 181.223 191.838 181.428C193.537 186.419 194.203 187.809 197.051 184.131C197.357 183.73 197.712 183.219 198.1 182.668C202.11 182.586 204.43 180.731 204.43 180.731C204.43 180.731 215.655 180.084 218.558 181.866C220.012 182.777 223.43 182.96 226.456 182.937C226.415 186.197 226.568 189.457 226.912 192.699C226.912 192.699 226.429 206.444 227.714 209.356C228.999 212.269 229.71 217.282 229.71 217.282C229.71 217.282 227.554 222.131 228.835 224.72C230.116 227.308 227.714 231.027 227.714 231.027V240.566L228.625 240.502C228.557 241.145 228.47 241.819 228.357 242.462C228.092 243.952 227.696 245.288 227.085 245.72C225.481 246.874 225.321 253.012 225.321 253.012C225.321 253.012 222.755 260.455 223.234 261.749C223.712 263.043 220.19 265.628 220.992 267.569C221.794 269.51 223.434 281.797 224.861 285.343C226.287 288.889 221.953 287.932 221.953 287.932L223.234 297.147C223.234 297.147 224.519 306.526 223.558 307.173C222.596 307.821 217.063 312.51 220.869 315.258C221.165 315.473 221.466 315.669 221.78 315.855C221.797 316.281 221.786 316.707 221.748 317.131C221.675 317.856 221.493 318.435 221.087 318.499C219.957 318.663 217.71 319.793 217.236 319.31C216.762 318.827 214.046 320.531 211.312 321.087L210.933 321.147L207.383 320.235C202.246 318.278 196.608 318.07 191.341 319.643C191.341 319.643 188.766 320.044 187.517 321.967C186.884 322.951 186.606 324.337 187.171 326.269C188.884 331.984 200.565 333.953 200.565 333.953C200.565 333.953 204.612 334.787 209.475 335.89C209.315 335.89 209.151 335.89 208.987 335.89C207.645 335.881 206.348 336.375 205.353 337.275C204.357 338.175 203.735 339.416 203.61 340.752C203.484 342.088 203.864 343.423 204.674 344.493C205.485 345.563 206.667 346.29 207.987 346.531C209.308 346.772 210.67 346.509 211.806 345.795C212.942 345.08 213.769 343.965 214.124 342.671C214.478 341.376 214.335 339.996 213.721 338.802C213.108 337.609 212.069 336.688 210.81 336.223C216.279 337.481 222.336 339.012 224.797 340.092C226.63 340.782 228.507 341.345 230.417 341.778C230.511 342.909 230.963 343.981 231.709 344.837C232.454 345.693 233.453 346.289 234.56 346.538C235.667 346.787 236.825 346.676 237.865 346.222C238.905 345.768 239.773 344.993 240.343 344.011C247.785 345.566 254.954 346.883 254.954 346.883L266.926 347.079H267.008C265.597 347.088 264.248 347.657 263.255 348.66C262.263 349.663 261.708 351.018 261.713 352.429C261.718 353.84 262.281 355.192 263.281 356.188C264.28 357.184 265.634 357.743 267.045 357.743C268.456 357.743 269.809 357.184 270.809 356.188C271.808 355.192 272.372 353.84 272.377 352.429C272.382 351.018 271.827 349.663 270.835 348.66C269.842 347.657 268.492 347.088 267.081 347.079L285.206 347.375C284.989 348.112 284.933 348.888 285.042 349.649C285.152 350.411 285.424 351.139 285.84 351.786C286.257 352.432 286.807 352.982 287.455 353.396C288.103 353.81 288.833 354.08 289.594 354.187C290.356 354.294 291.131 354.236 291.868 354.016C292.605 353.796 293.286 353.42 293.864 352.913C294.443 352.406 294.905 351.78 295.22 351.079C295.535 350.377 295.695 349.616 295.689 348.847C295.688 348.407 295.633 347.97 295.525 347.544L311.512 347.803L314.702 344.294C314.881 343.953 314.988 343.579 315.017 343.196C315.113 342.043 314.515 340.293 310.432 339.55C310.131 339.495 301.8 339.627 294.44 339.75V336.861C294.44 336.861 294.235 335.27 294.107 333.397C294.071 332.846 294.039 332.271 294.025 331.706C294.442 331.992 294.904 332.203 295.392 332.331C298.441 332.818 302.611 323.922 302.611 323.922C302.611 323.922 302.611 318.909 303.573 314.866C304.535 310.824 306.307 297.238 306.307 297.238L310.163 280.909C310.163 280.909 311.758 247.594 310.956 246.299C310.154 245.005 311.922 242.74 311.922 242.74C311.922 242.74 313.203 235.626 311.28 233.201C309.356 230.777 312.401 228.347 312.401 228.347C312.401 228.347 313.203 219.939 310.956 216.708C308.709 213.476 312.009 211.211 312.009 211.211L312.811 198.113C316.179 194.718 319.223 174.505 319.387 170.139C319.43 167.682 319.976 165.259 320.992 163.021C320.992 163.021 323.234 159.625 323.558 157.36C323.881 155.095 326.292 150.41 326.292 150.41L330.462 134.883C332.144 128.621 331.715 123.99 330.599 120.691C330.435 120.226 330.262 119.802 330.084 119.397ZM254.744 120.308C257.31 121.926 256.508 122.409 257.31 123.38C258.112 124.351 257.47 124.186 256.827 125.804C256.184 127.422 256.668 126.939 256.987 128.717C257.306 130.494 257.151 130.494 257.151 130.494L257.953 130.608L256.836 138.114C255.013 139.304 254.179 141.582 253.801 143.934C252.725 142.53 251.641 141.072 250.67 139.714C251.003 138.971 250.939 138.087 250.948 137.253C250.984 134.518 252.005 131.907 252.475 129.213C252.954 126.473 252.866 123.664 252.215 120.96C251.981 119.942 251.621 118.958 251.144 118.029C252.183 118.722 253.5 119.542 254.744 120.326V120.308ZM257.629 278.785C257.629 278.785 259.657 277.418 261.626 276.174C262.287 280.973 262.911 285.963 263.353 290.475C262.647 288.907 262.155 287.841 262.155 287.841C261.431 286.971 260.998 285.897 260.915 284.769C260.838 283.01 257.629 278.803 257.629 278.803V278.785ZM245.602 112.565C246.058 112.629 246.705 113.208 247.316 113.9C246.75 113.445 246.181 112.989 245.597 112.56L245.602 112.565ZM216.247 172.395C214.397 172.979 208.126 172.892 204.398 172.673C205.793 170.29 207.178 167.865 208.408 165.691C209.134 165.879 209.873 166.012 210.619 166.088L222.828 155.364C227.421 156.975 232.43 156.943 237.002 155.273L237.335 155.793C237.476 156.02 237.626 156.248 237.791 156.503L237.485 156.007C237.485 156.007 232.773 158.814 233.251 160.108C233.73 161.403 232.613 164.634 230.849 168.098C230.394 168.964 229.997 169.82 229.614 170.682C225.622 171.055 218.098 171.812 216.247 172.395ZM239.413 321.807L239.345 320.527C240.119 320.358 240.63 320.203 240.63 320.203C240.47 318.303 240.202 316.413 239.828 314.543C239.345 312.601 239.595 313.249 241.473 311.808C243.351 310.368 241.473 294.034 241.473 294.034C241.473 294.034 242.384 292.899 243.829 295.812C245.274 298.724 246.723 300.501 247.206 300.661C247.689 300.82 245.278 304.061 247.206 307.132C248.403 309.119 249.218 311.313 249.608 313.599C249.608 313.599 248.327 318.736 250.251 321.019C250.51 321.285 250.82 321.497 251.162 321.643C251.162 322.067 251.162 322.518 251.162 322.942C251.162 323.795 251.162 324.524 251.121 324.679C251.102 324.788 251.056 324.89 250.986 324.976C250.916 325.062 250.825 325.129 250.722 325.169C250.619 325.209 250.507 325.222 250.397 325.207C250.287 325.191 250.183 325.147 250.096 325.08C249.599 324.756 246.45 325.481 246.664 327.509C245.919 328.389 245.075 329.179 244.148 329.865L239.778 328.735L239.413 321.807Z" fill="url(#paint0_linear_145:2)"/>
<path d="M200.05 154.27C200.05 154.27 198.523 166.781 210.633 168.061L212.456 159.402L208.641 154.27L203.177 152.42L200.05 154.27Z" fill="#5DC7D1"/>
<path opacity="0.1" d="M203.177 152.42L200.05 154.266C200.05 154.266 198.523 166.776 210.633 168.057" fill="black"/>
<path d="M222.022 83.5339C222.022 83.5339 213.85 84.0352 205.656 85.3933C204.817 85.5361 203.983 85.688 203.154 85.8491C202.671 85.9402 202.197 86.0359 201.723 86.1408C197.43 87.0249 193.519 88.1734 191.241 89.6409C188.506 91.3955 187.595 86.6694 187.508 80.1021C187.471 77.7915 187.549 75.2575 187.672 72.6962C187.832 69.7339 188.064 66.7351 188.31 64.037C188.852 58.0576 189.477 53.409 189.477 53.409C189.477 53.409 192.339 53.409 196.163 53.2769L197.393 53.2313C198.592 53.1857 199.863 53.1219 201.144 53.0444C201.75 53.0125 202.361 52.9761 202.967 52.9305C205.391 52.7573 207.784 52.5112 209.803 52.1922C211.954 51.8458 213.7 51.4083 214.648 50.8249C218.977 48.2454 222.022 83.5339 222.022 83.5339Z" fill="#F8BDC5"/>
<path d="M258.431 129.728L256.836 140.315C256.836 140.315 253.359 144.645 253.815 147.051C254.27 149.458 258.281 255.802 258.281 255.802C258.281 255.802 266.143 300.711 263.413 306.485C260.683 312.26 263.253 325.736 263.253 325.736L279.614 323.17L285.083 126.839L258.431 129.728Z" fill="#474463"/>
<path opacity="0.1" d="M258.431 129.728L256.836 140.315C256.836 140.315 253.359 144.645 253.815 147.051C254.27 149.458 258.281 255.802 258.281 255.802C258.281 255.802 266.143 300.711 263.413 306.485C260.683 312.26 263.253 325.736 263.253 325.736L279.614 323.17L285.083 126.839L258.431 129.728Z" fill="black"/>
<path d="M294.522 328.461C294.002 329.323 294.043 331.857 294.189 334.012C294.317 335.867 294.522 337.444 294.522 337.444V348.35C294.522 348.35 277.039 342.257 267.414 335.84C263.445 333.192 262.314 330.731 262.533 328.762C262.852 325.959 265.906 324.132 267.414 324.132C268.854 324.132 273.403 321.621 277.131 319.401C280.061 317.665 282.495 316.111 282.495 316.111C282.495 316.111 295.484 326.857 294.522 328.461Z" fill="#575988"/>
<path opacity="0.1" d="M294.522 328.461C294.002 329.323 294.043 331.857 294.189 334.012C290.302 332.189 278.265 320.513 277.131 319.401C280.061 317.665 282.495 316.111 282.495 316.111C282.495 316.111 295.484 326.857 294.522 328.461Z" fill="black"/>
<path d="M330.453 137.107L326.283 152.507C326.283 152.507 323.877 157.155 323.548 159.402C323.22 161.649 320.983 165.017 320.983 165.017C319.97 167.234 319.424 169.635 319.378 172.072C319.219 176.406 316.188 196.454 312.802 199.822L312 212.816C312 212.816 308.81 215.058 311.038 218.285C313.267 221.511 312.483 229.833 312.483 229.833C312.483 229.833 309.434 232.24 311.362 234.646C313.29 237.052 312 244.112 312 244.112C312 244.112 310.236 246.354 311.038 247.639C311.84 248.924 310.245 281.966 310.245 281.966L306.39 298.163C306.39 298.163 304.621 311.64 303.655 315.65C302.689 319.661 302.694 324.629 302.694 324.629C302.694 324.629 298.523 333.452 295.474 332.973C292.426 332.495 277.673 318.052 277.673 318.052L279.756 269.287C279.756 269.287 281.52 248.596 280.398 244.586C279.277 240.575 278.475 220.527 278.475 220.527L276.228 188.93L253.796 153.641C253.796 153.641 252.169 143.373 256.818 140.329L257.661 134.783L258.422 129.742L285.052 126.853L325.791 116.27C325.791 116.27 328.931 118.207 330.576 123.043C331.702 126.301 332.135 130.895 330.453 137.107Z" fill="#474463"/>
<path d="M259.571 153.332C259.571 153.332 240.644 176.575 241.446 170.08C241.947 166.001 239.358 161.02 237.344 157.871C236.154 155.998 235.17 154.772 235.17 154.772C235.17 154.772 246.719 133.602 247.361 136.487C247.566 137.399 248.902 139.49 250.62 141.879C254.243 146.883 259.571 153.332 259.571 153.332Z" fill="#FFC1C8"/>
<path opacity="0.3" d="M294.522 346.081V348.359C294.522 348.359 277.039 342.266 267.414 335.849C263.445 333.201 262.314 330.74 262.533 328.771C267.847 331.46 277.732 336.587 280.726 338.898C283.27 340.858 289.841 343.961 294.522 346.081Z" fill="white"/>
<path d="M290.407 354.735C293.359 354.735 295.752 352.342 295.752 349.389C295.752 346.437 293.359 344.043 290.407 344.043C287.454 344.043 285.061 346.437 285.061 349.389C285.061 352.342 287.454 354.735 290.407 354.735Z" fill="#474463"/>
<path d="M235.799 347.229C238.751 347.229 241.145 344.836 241.145 341.883C241.145 338.931 238.751 336.537 235.799 336.537C232.847 336.537 230.453 338.931 230.453 341.883C230.453 344.836 232.847 347.229 235.799 347.229Z" fill="#474463"/>
<path d="M315.099 343.784C315.069 344.164 314.962 344.535 314.784 344.873L311.594 348.35L267.004 347.635L255.013 347.439C255.013 347.439 229.774 342.845 224.856 340.703C219.939 338.561 200.606 334.641 200.606 334.641C200.606 334.641 188.93 332.682 187.216 327.017C186.637 325.098 186.929 323.726 187.563 322.751C188.807 320.841 191.386 320.44 191.386 320.44C196.655 318.884 202.289 319.092 207.429 321.033L282.171 340.261L283.329 340.557C283.329 340.557 309.972 340.06 310.509 340.156C314.598 340.903 315.195 342.64 315.099 343.784Z" fill="#5DC7D1"/>
<path opacity="0.3" d="M315.099 343.784C310.614 343.2 302.794 342.339 300.779 343.168C300.779 343.168 286.555 341.409 266.986 347.635L255.013 347.439C255.013 347.439 229.774 342.845 224.856 340.703C219.939 338.561 200.606 334.641 200.606 334.641C200.606 334.641 188.93 332.682 187.216 327.017C186.637 325.098 186.929 323.726 187.563 322.751C188.36 325.075 189.896 328.443 192.348 329.387C196.199 330.868 212.027 333.885 212.027 333.885L243.355 341.555C243.355 341.555 261.444 345.479 268.485 342.922C271.37 341.883 276.784 340.958 282.157 340.233L283.315 340.53C283.315 340.53 309.958 340.033 310.496 340.129C314.598 340.903 315.195 342.64 315.099 343.784Z" fill="white"/>
<path d="M271.835 338.009C271.797 338.681 271.713 339.35 271.584 340.01C271.584 340.01 253.865 340.644 244.64 339.276C242.093 338.898 240.653 338.082 239.937 337.107C239.618 336.646 239.42 336.112 239.362 335.555C239.303 334.997 239.387 334.434 239.604 333.917C239.706 333.62 239.836 333.333 239.992 333.06C240.68 331.857 241.737 331.004 242.316 331.118C243.92 331.442 246.673 328.152 246.673 328.152C246.454 326.142 249.613 325.417 250.105 325.745C250.193 325.813 250.296 325.857 250.406 325.872C250.516 325.888 250.628 325.875 250.731 325.834C250.834 325.794 250.925 325.728 250.995 325.642C251.065 325.556 251.112 325.453 251.13 325.344C251.162 325.194 251.171 324.469 251.171 323.621C251.171 322.209 251.13 320.431 251.13 320.431L268.941 322.596L269.647 326C270.294 329.036 271.197 333.206 271.584 334.632C271.853 335.736 271.938 336.878 271.835 338.009Z" fill="#474463"/>
<path opacity="0.1" d="M271.835 338.009C271.797 338.681 271.713 339.35 271.584 340.01C271.584 340.01 253.865 340.644 244.64 339.276C242.093 338.898 240.653 338.082 239.937 337.107C242.302 336.966 245.379 336.888 247.284 337.353C250 338.028 266.247 338.028 271.835 338.009Z" fill="black"/>
<path d="M239.973 333.051C239.993 333.215 239.967 333.382 239.899 333.533C239.831 333.684 239.722 333.813 239.586 333.908C237.344 335.639 226.584 333.757 226.584 333.757C226.584 333.757 204.598 332.39 201.313 330.148C201.016 329.953 200.768 329.692 200.588 329.387C199.221 326.916 204.17 322.769 204.598 322.769C205.027 322.769 210.938 321.962 211.334 321.885C214.069 321.334 216.803 319.638 217.259 320.121C217.715 320.604 219.994 319.479 221.106 319.319C221.511 319.26 221.698 318.686 221.766 317.952C221.831 316.959 221.797 315.962 221.666 314.976L239.226 319.702L239.381 322.5L239.887 331.816L239.951 332.96C239.962 332.989 239.969 333.02 239.973 333.051Z" fill="#474463"/>
<path opacity="0.1" d="M226.602 333.757C226.602 333.757 204.617 332.39 201.331 330.148C201.034 329.953 200.786 329.692 200.606 329.387C205.059 329.751 212.483 330.366 213.823 330.708C215.751 331.164 226.584 331.829 226.584 331.829H239.905L239.969 332.973C240.548 336.2 226.602 333.757 226.602 333.757Z" fill="black"/>
<path d="M209.028 347.229C211.981 347.229 214.374 344.836 214.374 341.883C214.374 338.931 211.981 336.537 209.028 336.537C206.076 336.537 203.682 338.931 203.682 341.883C203.682 344.836 206.076 347.229 209.028 347.229Z" fill="#474463"/>
<path d="M267.09 358.327C270.043 358.327 272.436 355.933 272.436 352.981C272.436 350.028 270.043 347.635 267.09 347.635C264.138 347.635 261.745 350.028 261.745 352.981C261.745 355.933 264.138 358.327 267.09 358.327Z" fill="#474463"/>
<path d="M212.72 160.045C212.72 160.045 211.708 161.868 210.186 164.575C206.54 171.01 199.982 182.417 197.161 186.027C193.15 191.158 193.474 186.35 189.139 175.604C185.922 167.61 195.825 158.463 201.121 154.307C202.944 152.862 204.22 152.028 204.22 152.028L212.72 160.045Z" fill="#F8BDC5"/>
<path d="M232.126 172.395C232.126 172.395 218.813 173.517 216.247 174.319C213.682 175.121 202.616 174.638 201.664 174.319C200.711 174 181.77 178.329 190.434 182.659C199.098 186.988 204.562 182.659 204.562 182.659C204.562 182.659 215.792 182.016 218.69 183.785C221.589 185.553 232.162 184.587 232.162 184.587L232.126 172.395Z" fill="#FFC1C8"/>
<path opacity="0.1" d="M204.471 74.2321C206.112 78.4295 205.086 82.0846 203.154 85.8354C198.314 86.7469 193.761 88.0002 191.227 89.6272C184.008 94.2804 189.463 53.3771 189.463 53.3771C189.463 53.3771 192.954 53.3771 197.379 53.1994C196.04 59.3155 201.117 65.664 204.471 74.2321Z" fill="black"/>
<path d="M204.881 73.3206C204.873 80.0386 202.391 86.5184 197.911 91.5239C193.43 96.5294 187.263 99.7103 180.587 100.46C173.911 101.209 167.193 99.475 161.713 95.5877C156.234 91.7004 152.378 85.9321 150.88 79.3832C149.382 72.8344 150.347 65.9632 153.591 60.0804C156.836 54.1977 162.132 49.7151 168.47 47.4877C174.808 45.2603 181.744 45.444 187.955 48.0037C194.167 50.5635 199.218 55.3201 202.147 61.3664C203.951 65.0927 204.886 69.1802 204.881 73.3206Z" fill="#F8BDC5"/>
<path opacity="0.1" d="M330.585 123.029C329.719 124.289 328.423 125.188 326.939 125.558C320.682 127.322 276.57 137.909 273.685 137.266C271.138 136.701 260.204 135.129 257.684 134.769L258.445 129.728L285.074 126.839L325.814 116.257C325.814 116.257 328.94 118.193 330.585 123.029Z" fill="black"/>
<path opacity="0.1" d="M222.022 83.5339C216.808 83.8464 211.613 84.4244 206.458 85.2657C206.531 85.0311 206.522 84.7785 206.431 84.5502L217.095 83.2331C217.095 83.2331 215.536 58.167 209.803 52.1602C211.954 51.8139 213.7 51.3764 214.648 50.793C218.977 48.2454 222.022 83.5339 222.022 83.5339Z" fill="black"/>
<path d="M208.071 45.8891C208.071 45.8891 217.537 45.0369 218.818 43.4327C220.098 41.8284 229.245 41.3499 229.245 41.3499C229.245 41.3499 233.734 40.5478 234.714 39.4221C235.694 38.2964 260.054 36.8562 262.46 38.1414C264.866 39.4267 267.113 40.2242 268.558 40.3883C270.003 40.5523 281.228 48.5644 282.349 48.5644C283.47 48.5644 314.251 77.6 314.251 77.6C314.251 77.6 317.441 84.9786 318.745 85.2976C320.048 85.6166 331.579 114.812 331.579 114.812C331.579 114.812 333.183 121.867 326.93 123.635C320.677 125.403 276.561 135.986 273.676 135.343C270.791 134.701 257.155 132.777 257.155 132.777C257.155 132.777 257.315 132.777 256.996 131.014C256.677 129.25 256.194 129.728 256.832 128.124C257.47 126.52 258.117 126.679 257.315 125.718C256.513 124.756 257.315 124.273 254.749 122.669C252.183 121.065 249.28 119.301 249.134 118.822C248.988 118.344 246.728 115.131 245.607 114.971C244.485 114.812 213.043 105.989 213.043 105.989L205.665 103.582C205.665 103.582 202.137 101.176 202.93 99.7356C203.723 98.2955 206.453 85.2657 206.453 85.2657L217.733 83.8757C217.733 83.8757 216.051 56.7131 209.735 52.1557C203.418 47.5982 208.071 45.8891 208.071 45.8891Z" fill="#5DC7D1"/>
<path opacity="0.1" d="M212.72 160.045C212.72 160.045 211.708 161.868 210.186 164.575C209.949 156.207 204.097 154.585 201.121 154.307C202.944 152.862 204.22 152.028 204.22 152.028L212.72 160.045Z" fill="black"/>
<path d="M204.881 99.2526L205.656 103.582C205.656 103.582 208.705 107.274 208.705 108.395C208.705 109.516 212.232 112.724 213.198 114.488C214.165 116.252 217.528 116.576 216.243 119.624C214.958 122.673 207.584 145.93 207.584 145.93L200.046 154.27C200.046 154.27 212.556 153.145 210.628 168.061L226.83 153.933L239.518 130.85C239.518 130.85 227.167 107.433 226.689 105.51C226.21 103.587 204.881 99.2526 204.881 99.2526Z" fill="#5DC7D1"/>
<path opacity="0.1" d="M242.394 107.274C242.394 107.274 252.657 100.055 252.657 99.2526C252.657 98.4505 242.394 107.274 242.394 107.274Z" fill="black"/>
<path opacity="0.1" d="M259.571 116.257C259.571 116.257 265.04 114.971 265.495 112.086C265.951 109.202 259.571 116.257 259.571 116.257Z" fill="black"/>
<path opacity="0.1" d="M264.046 123.635C264.046 123.635 271.748 119.82 271.425 119.16C271.101 118.499 264.046 123.635 264.046 123.635Z" fill="black"/>
<path opacity="0.1" d="M305.268 99.2024C305.268 99.2024 302.078 101.285 303.026 103.236C303.974 105.186 305.268 99.2024 305.268 99.2024Z" fill="black"/>
<path opacity="0.1" d="M314.716 100.055C314.716 100.055 305.628 108.714 307.684 108.878C309.739 109.042 314.716 100.055 314.716 100.055Z" fill="black"/>
<path opacity="0.1" d="M294.043 234.309C294.043 234.309 305.752 236.555 306.071 237.358C306.39 238.16 294.043 234.309 294.043 234.309Z" fill="black"/>
<path opacity="0.1" d="M298.213 242.006C298.213 242.006 304.466 245.857 304.626 246.978C304.785 248.1 298.213 242.006 298.213 242.006Z" fill="black"/>
<path opacity="0.1" d="M296.769 250.67C296.769 250.67 297.73 255 299.335 255.642C300.939 256.285 296.769 250.67 296.769 250.67Z" fill="black"/>
<path opacity="0.1" d="M202.174 61.2251C202.174 61.2706 202.174 61.3208 202.151 61.3664C201.932 62.7928 201.349 64.3378 200.009 64.8118C199.2 65.0395 198.335 64.96 197.58 64.5885C195.301 63.5904 193.273 61.1932 190.84 61.772C189.682 62.0454 188.871 62.925 188.296 64.0051C187.898 64.7826 187.592 65.604 187.385 66.4525C186.929 68.239 186.565 70.1805 187.262 71.8804C187.377 72.1585 187.514 72.4268 187.672 72.6826C188.319 73.7171 189.231 74.5967 189.869 75.6404C190.662 76.9438 190.867 78.8989 189.632 79.7922C189.322 79.9959 188.971 80.1281 188.603 80.1794C188.236 80.2306 187.862 80.1995 187.508 80.0884C186.603 79.8042 185.733 79.4189 184.915 78.94C183.302 78.0968 181.269 77.5727 179.738 78.548C179.209 78.8762 178.785 79.3501 178.279 79.6965C177.228 80.3477 175.98 80.6075 174.756 80.4302C171.858 80.134 170.773 78.2974 168.558 76.8754C166.936 75.8272 163.545 75.3806 162.579 77.5226C161.959 78.8898 162.879 80.6126 162.273 82.0071C161.667 83.4017 159.739 83.8301 158.846 85.1244C157.67 86.8289 158.764 89.2945 157.903 91.1859C157.771 91.4789 157.594 91.7495 157.379 91.988C152.549 86.784 149.926 79.9099 150.06 72.8115C150.195 65.713 153.077 58.9433 158.1 53.926C163.123 48.9086 169.896 46.0347 176.995 45.9085C184.093 45.7824 190.964 48.4138 196.163 53.2495L197.393 53.2039C198.592 53.1584 199.863 53.0945 201.144 53.0171C201.447 53.6583 201.683 54.3286 201.85 55.0178C202.346 57.0483 202.456 59.154 202.174 61.2251Z" fill="black"/>
<path d="M161.927 76.8845C161.303 78.2517 162.223 79.9744 161.622 81.3645C161.02 82.7545 159.079 83.1875 158.194 84.4818C157.014 86.1908 158.108 88.6564 157.251 90.5432C156.267 92.6989 153.295 93.0362 151.016 92.4072C149.07 91.8513 147.283 90.8401 145.804 89.4573C144.326 88.0745 143.197 86.3596 142.512 84.4544C140.967 80.0565 141.965 75.2165 141.564 70.5724C141.393 68.5823 140.964 66.6228 140.288 64.7434C139.627 62.9204 138.725 61.1248 138.511 59.1878C138.357 57.5444 138.7 55.8927 139.495 54.4459C140.289 52.9991 141.499 51.8236 142.968 51.071C144.846 50.1595 147.156 49.8997 148.523 48.3365C149.572 47.1242 149.795 45.4334 150.283 43.9066C151.6 39.8049 155.533 36.4597 159.853 36.5007C163.308 36.5281 166.69 38.5653 170.067 37.7632C171.976 37.3074 173.713 35.9402 175.681 36.1362C176.624 36.2845 177.528 36.6208 178.338 37.1251C183.58 39.9564 188.568 43.2347 193.246 46.9237C194.214 47.7571 195.273 48.4772 196.404 49.0702C197.133 49.3541 197.843 49.6813 198.533 50.0501C200.005 50.9616 200.775 52.698 201.194 54.3843C201.697 56.4135 201.812 58.5197 201.531 60.5915C201.331 62.0545 200.757 63.6952 199.367 64.1828C198.555 64.4093 197.687 64.3265 196.933 63.9504C194.654 62.9614 192.631 60.5642 190.197 61.1384C188.21 61.5942 187.253 63.8456 186.733 65.8189C186.278 67.6055 185.904 69.547 186.61 71.2515C187.194 72.6643 188.433 73.6988 189.213 75.0068C189.992 76.3148 190.215 78.27 188.976 79.1587C187.608 80.1476 185.753 79.0949 184.254 78.311C182.65 77.4678 180.608 76.9437 179.081 77.9145C178.557 78.2426 178.133 78.7166 177.623 79.0675C176.571 79.7125 175.326 79.9703 174.105 79.7967C171.201 79.5005 170.117 77.6638 167.906 76.2419C166.279 75.1846 162.898 74.7379 161.927 76.8845Z" fill="#474463"/>
<path opacity="0.1" d="M250.624 141.856C250.501 142.539 249.562 142.617 249.371 143.282C247.548 149.713 243.537 155.496 237.348 157.866C236.159 155.993 235.174 154.767 235.174 154.767C235.174 154.767 246.723 133.598 247.366 136.483C247.571 137.38 248.906 139.468 250.624 141.856Z" fill="black"/>
<path d="M250.966 137.426C250.967 141.614 249.726 145.708 247.4 149.191C245.074 152.673 241.767 155.388 237.898 156.991C234.029 158.595 229.772 159.015 225.664 158.198C221.556 157.382 217.783 155.365 214.822 152.404C211.86 149.443 209.843 145.67 209.025 141.563C208.208 137.456 208.627 133.198 210.23 129.329C211.832 125.459 214.546 122.152 218.028 119.825C221.51 117.498 225.604 116.256 229.792 116.256C232.575 116.246 235.333 116.787 237.906 117.847C240.479 118.907 242.817 120.466 244.786 122.434C246.754 124.402 248.313 126.739 249.374 129.312C250.435 131.885 250.976 134.643 250.966 137.426Z" fill="#FFC1C8"/>
<path opacity="0.1" d="M239.263 319.716L239.418 322.514C237.563 322.924 234.035 323.462 231.98 322.204C229.323 320.577 225.399 320.18 221.803 317.966C221.867 316.973 221.833 315.976 221.703 314.99L239.263 319.716Z" fill="black"/>
<path opacity="0.1" d="M269.647 326.01C269.524 326.634 269.41 327.017 269.41 327.017C269.41 327.017 255.259 325.567 251.18 323.612C251.18 322.199 251.139 320.422 251.139 320.422L268.95 322.587L269.647 326.01Z" fill="black"/>
<path d="M266.452 262.378C265.491 264.944 265.008 265.427 265.974 266.708C266.94 267.988 266.452 274.729 264.921 275.367C263.39 276.005 257.629 279.856 257.629 279.856C257.629 279.856 260.819 284.026 260.915 285.781C260.999 286.902 261.433 287.968 262.155 288.83C262.155 288.83 267.095 299.417 268.079 302.785C269.064 306.153 269.966 311.444 269.966 311.444C269.966 311.444 268.239 316.257 269.433 318.986C270.627 321.716 269.433 325.722 269.433 325.722C269.433 325.722 252.201 323.959 250.292 321.694C248.382 319.429 249.654 314.333 249.654 314.333C249.26 312.063 248.444 309.886 247.247 307.916C245.319 304.867 247.703 301.664 247.247 301.499C246.792 301.335 245.319 299.576 243.87 296.691C242.421 293.806 241.519 294.923 241.519 294.923C241.519 294.923 243.396 311.125 241.519 312.57C239.641 314.014 239.386 313.372 239.869 315.304C240.243 317.159 240.511 319.033 240.671 320.919C240.671 320.919 234.897 322.683 232.012 320.919C229.127 319.155 224.783 318.832 220.969 316.106C217.154 313.381 222.696 308.728 223.658 308.085C224.619 307.442 223.339 298.141 223.339 298.141L222.054 288.998C222.054 288.998 226.383 289.96 224.961 286.432C223.539 282.905 221.894 270.714 221.092 268.791C220.29 266.867 223.826 264.297 223.339 263.016C222.851 261.736 225.422 254.357 225.422 254.357C225.422 254.357 225.586 248.264 227.185 247.12C227.796 246.691 228.192 245.361 228.457 243.888C228.737 242.151 228.903 240.397 228.954 238.638C228.954 238.638 265.682 236.072 271.616 239.6C274.287 241.186 274.1 244.107 272.983 247.065C271.616 250.675 268.809 254.357 268.102 255.692C266.776 258.153 267.414 259.812 266.452 262.378Z" fill="#575988"/>
<path opacity="0.1" d="M272.938 247.065C268.38 248.346 262.31 250.228 261.321 251.308C259.717 253.076 254.261 241.364 254.261 241.364C254.261 241.364 254.585 250.169 247.366 246.486C241.117 243.296 231.032 243.715 228.425 243.888C228.705 242.151 228.871 240.397 228.922 238.638C228.922 238.638 265.65 236.072 271.584 239.6C274.255 241.186 274.068 244.107 272.938 247.065Z" fill="black"/>
<path d="M254.261 150.1C254.261 150.1 257.451 146.249 258.112 147.694C258.773 149.139 262.538 152.024 262.538 152.024C262.538 152.024 263.618 155.391 265.518 155.875C267.419 156.358 281.693 175.604 281.693 175.604L276.556 186.027L272.386 211.371C272.386 211.371 272.569 215.381 271.434 216.84C270.299 218.298 265.965 217.961 267.975 219.725C269.984 221.488 272.869 223.093 274.474 231.118C276.078 239.144 278.001 243.788 278.001 243.788C278.001 243.788 262.925 247.639 261.321 249.403C259.717 251.167 254.261 239.459 254.261 239.459C254.261 239.459 254.585 248.259 247.366 244.581C240.147 240.903 227.796 242.024 227.796 242.024V232.545C227.796 232.545 230.202 228.853 228.922 226.287C227.641 223.722 229.797 218.909 229.797 218.909C229.797 218.909 229.081 213.937 227.796 211.052C226.511 208.167 226.994 194.531 226.994 194.531C226.994 194.531 226.019 185.708 226.907 181.214C227.661 177.319 228.993 173.559 230.859 170.057C232.622 166.621 233.739 163.413 233.26 162.127C232.782 160.842 237.494 158.062 237.494 158.062L240.106 162.287L240.771 164.812C240.771 164.812 254.585 154.913 254.261 150.1Z" fill="#DCE6F2"/>
<path d="M277.345 172.395C277.345 172.395 286.328 181.214 287.289 182.659C288.251 184.104 291.473 191.614 287.303 193.893C283.133 196.172 266.794 199.686 265.172 198.473C263.549 197.261 253.778 199.84 253.778 199.84C253.778 199.84 237.435 203.851 240.963 197.275C244.49 190.698 252.835 191.806 252.835 191.806C252.835 191.806 266.316 191.783 267.756 190.438C269.196 189.094 280.061 186.209 277.6 180.266C275.139 174.323 277.345 172.395 277.345 172.395Z" fill="#FFC1C8"/>
<path opacity="0.1" d="M250.966 211.854C250.966 211.854 230.043 229.979 232.126 229.979C234.208 229.979 250.966 211.854 250.966 211.854Z" fill="black"/>
<path opacity="0.1" d="M264.921 219.232C264.921 219.232 258.272 220.832 259.557 221.798C260.842 222.765 264.921 219.232 264.921 219.232Z" fill="black"/>
<path opacity="0.1" d="M241.473 175.28C241.473 175.28 249.772 176.023 248.309 178.621C246.846 181.219 241.473 175.28 241.473 175.28Z" fill="black"/>
<path opacity="0.1" d="M236.3 253.181C236.3 253.181 235.175 256.444 236.3 258.194C237.426 259.944 236.3 264.119 236.3 264.119V278.703C236.3 278.703 236.145 289.29 239.987 292.977L236.3 253.181Z" fill="black"/>
<path opacity="0.1" d="M225.312 298.628C225.312 298.628 227.555 301.914 227.878 303.117C228.202 304.321 225.312 298.628 225.312 298.628Z" fill="black"/>
<path opacity="0.1" d="M225.873 292.052C225.873 292.052 231.087 291.09 231.889 291.651C232.691 292.211 225.873 292.052 225.873 292.052Z" fill="black"/>
<path opacity="0.1" d="M224.351 311.699C224.351 311.699 222.824 311.859 225.873 313.522C228.922 315.185 234.856 317.291 234.933 316.571C235.011 315.851 224.351 311.699 224.351 311.699Z" fill="black"/>
<path opacity="0.1" d="M246.668 295.739C247.206 295.739 253.919 295.338 253.532 296.381C253.145 297.425 246.668 295.739 246.668 295.739Z" fill="black"/>
<path opacity="0.1" d="M255.788 286.355C255.788 286.355 257.31 283.712 257.871 284.833C258.431 285.954 255.788 286.355 255.788 286.355Z" fill="black"/>
<path opacity="0.1" d="M250.966 137.426C250.969 139.394 250.696 141.353 250.155 143.246C249.271 144.048 247.744 144.057 246.655 143.46C245.379 142.758 244.545 141.482 243.715 140.27C242.886 139.058 241.942 137.845 240.584 137.326C238.866 136.679 236.906 137.326 235.412 138.401C233.917 139.477 232.723 140.899 231.31 142.047C229.897 143.196 228.097 144.125 226.297 143.843C225.134 143.665 224.104 143.009 223.106 142.375C221.739 141.514 220.272 140.174 218.772 139.595C217.273 139.017 216.038 140.051 214.611 140.051C213.476 140.461 212.241 141.396 212.469 142.576C212.591 143.014 212.789 143.427 213.053 143.797C213.511 144.7 213.691 145.717 213.572 146.722C213.453 147.727 213.039 148.674 212.383 149.444C210.494 146.713 209.273 143.576 208.821 140.286C208.368 136.996 208.695 133.646 209.776 130.506C210.857 127.367 212.661 124.525 215.043 122.211C217.425 119.897 220.318 118.176 223.487 117.187C226.657 116.197 230.016 115.967 233.291 116.515C236.566 117.063 239.666 118.374 242.342 120.341C245.017 122.308 247.192 124.877 248.691 127.841C250.19 130.804 250.971 134.078 250.971 137.399L250.966 137.426Z" fill="black"/>
<path d="M214.607 139.436C213.472 139.846 212.237 140.78 212.46 141.965C212.587 142.401 212.786 142.812 213.048 143.182C214.379 145.556 213.253 148.965 210.769 150.068C210.38 150.271 209.935 150.342 209.502 150.269C209.159 150.162 208.846 149.975 208.591 149.722C207.255 148.528 206.334 146.94 205.961 145.187C205.569 143.364 205.811 141.432 205.61 139.559C205.41 137.686 204.767 135.84 204.544 133.953C204.386 133.021 204.485 132.063 204.831 131.182C205.132 130.601 205.519 130.07 205.979 129.605C207.26 128.179 208.595 126.72 209.238 124.911C210.254 122.031 209.516 118.362 211.74 116.252C212.77 115.286 214.21 114.926 215.486 114.315C216.688 113.677 217.838 112.947 218.927 112.132C223.052 109.297 228.065 107.119 232.969 108.121C234.928 108.596 236.804 109.364 238.533 110.4C241.745 112.171 244.796 114.22 247.648 116.525C248.882 117.438 249.96 118.545 250.839 119.802C251.494 120.879 251.965 122.057 252.233 123.289C252.888 125.975 252.978 128.769 252.498 131.492C252.042 134.163 251.007 136.756 250.966 139.468C250.966 140.379 251.039 141.364 250.57 142.147C249.818 143.396 247.954 143.515 246.678 142.822C245.402 142.129 244.568 140.844 243.743 139.632C242.918 138.419 241.97 137.207 240.612 136.692C238.894 136.04 236.934 136.692 235.439 137.763C233.944 138.834 232.755 140.261 231.337 141.409C229.92 142.558 228.147 143.487 226.324 143.205C225.162 143.027 224.132 142.375 223.134 141.742C221.767 140.876 220.299 139.536 218.804 138.962C217.309 138.388 216.029 139.436 214.607 139.436Z" fill="#794F6A"/>
<path d="M263.244 172.395C263.244 172.395 239.668 194.207 244.476 205.113C249.285 216.019 270.454 196.773 270.454 196.773L278.001 179.309L263.244 172.395Z" fill="#F8BDC5"/>
<g opacity="0.1">
<path opacity="0.1" d="M210.76 148.774C210.372 148.977 209.929 149.047 209.498 148.975C209.153 148.869 208.84 148.68 208.586 148.423C207.25 147.23 206.328 145.644 205.952 143.893C205.565 142.047 205.806 140.133 205.606 138.26C205.405 136.387 204.758 134.546 204.539 132.654C204.539 132.563 204.539 132.467 204.516 132.372C204.467 132.894 204.475 133.419 204.539 133.939C204.758 135.826 205.405 137.649 205.606 139.545C205.806 141.441 205.565 143.332 205.952 145.174C206.327 146.926 207.249 148.515 208.586 149.708C208.841 149.962 209.154 150.15 209.498 150.255C209.929 150.328 210.372 150.257 210.76 150.055C212.72 149.184 213.827 146.892 213.568 144.795C213.472 145.641 213.165 146.45 212.675 147.145C212.184 147.841 211.525 148.401 210.76 148.774Z" fill="black"/>
<path opacity="0.1" d="M252.466 130.202C252.01 132.873 250.975 135.466 250.939 138.178C250.939 139.089 251.012 140.074 250.538 140.858C249.79 142.106 247.926 142.225 246.65 141.532C245.374 140.839 244.54 139.559 243.711 138.342C242.881 137.125 241.942 135.917 240.58 135.402C238.866 134.755 236.906 135.402 235.412 136.478C233.917 137.554 232.723 138.971 231.31 140.124C229.897 141.277 228.097 142.202 226.297 141.924C225.134 141.742 224.104 141.09 223.106 140.457C221.739 139.591 220.272 138.255 218.777 137.677C217.282 137.098 216.042 138.132 214.616 138.132C213.481 138.547 212.246 139.477 212.465 140.666C212.493 140.795 212.534 140.92 212.588 141.04C213.034 140.262 213.759 139.682 214.616 139.418C216.038 139.418 217.296 138.397 218.777 138.962C220.258 139.527 221.753 140.876 223.106 141.742C224.095 142.375 225.125 143.027 226.297 143.205C228.12 143.487 229.906 142.571 231.31 141.409C232.713 140.247 233.921 138.811 235.412 137.763C236.902 136.715 238.866 136.04 240.58 136.692C241.947 137.207 242.886 138.433 243.711 139.632C244.536 140.83 245.374 142.102 246.65 142.822C247.926 143.542 249.79 143.396 250.538 142.147C250.994 141.364 250.925 140.384 250.939 139.468C250.975 136.756 251.996 134.163 252.466 131.492C252.706 130.12 252.804 128.728 252.757 127.336C252.728 128.297 252.631 129.255 252.466 130.202Z" fill="black"/>
</g>
<path opacity="0.1" d="M235.015 61.3982C235.015 61.3982 226.356 77.1169 238.205 85.1381C250.055 93.1592 251.199 92.3571 251.199 92.3571C251.199 92.3571 251.035 94.2804 251.199 94.7635C251.363 95.2465 254.389 96.3631 254.389 96.3631C254.389 96.3631 258.076 102.288 263.367 104.867C268.658 107.447 269.624 113.527 269.624 113.527C269.624 113.527 269.624 115.614 272.359 117.537C275.093 119.46 277.199 125.075 277.199 125.075V130.211C277.199 131.014 278.161 133.402 276.078 133.657C273.995 133.912 275.754 138.711 275.754 138.711C275.754 138.711 273.512 141.446 273.991 142.722C274.469 143.998 273.029 146.568 273.029 146.568C273.029 146.568 271.265 149.134 271.425 149.617C271.584 150.1 269.501 151.864 269.98 152.985C270.459 154.106 267.578 155.551 268.057 156.836C268.535 158.121 266.006 158.759 266.006 158.759L259.074 174.802C259.074 174.802 273.658 177.992 277.422 186.027L295.807 152.343C295.807 152.343 306.071 127.163 306.394 125.558C306.718 123.954 304.147 118.18 304.147 118.18L291.637 95.3924L272.869 68.9272C272.869 68.9272 257.953 37.1798 235.015 61.3982Z" fill="black"/>
<path opacity="0.1" d="M253.532 68.0294C253.532 68.0294 231 75.9366 242.868 83.9577C254.735 91.9789 255.861 91.1722 255.861 91.1722C255.861 91.1722 255.701 93.1 255.861 93.5785C256.02 94.0571 259.051 95.1828 259.051 95.1828C259.051 95.1828 262.743 101.107 268.034 103.687C273.325 106.267 274.291 112.346 274.291 112.346C274.291 112.346 274.291 114.434 277.026 116.357C279.76 118.28 281.839 123.895 281.839 123.895V129.027C281.839 129.829 282.8 132.217 280.713 132.477C278.626 132.736 280.394 137.531 280.394 137.531C280.394 137.531 278.147 140.265 278.63 141.537C279.113 142.808 277.668 145.388 277.668 145.388C277.668 145.388 275.905 147.954 276.064 148.437C276.224 148.92 274.136 150.684 274.62 151.805C275.103 152.926 272.213 154.371 272.696 155.656C273.179 156.941 270.641 157.579 270.641 157.579L263.713 173.617C263.713 173.617 275.727 174.237 279.519 182.276L300.442 151.18C300.442 151.18 310.71 126 311.029 124.396C311.348 122.792 308.791 116.999 308.791 116.999L296.281 94.212L267.742 77.7504C267.742 77.7504 276.47 43.8064 253.532 68.0294Z" fill="black"/>
<path d="M236.3 61.3982C236.3 61.3982 227.641 77.1169 239.49 85.1381C251.34 93.1592 252.484 92.3571 252.484 92.3571C252.484 92.3571 252.324 94.2803 252.484 94.7634C252.643 95.2465 255.674 96.3631 255.674 96.3631C255.674 96.3631 259.366 102.288 264.657 104.867C269.948 107.447 270.914 113.527 270.914 113.527C270.914 113.527 270.914 115.614 273.649 117.537C276.383 119.46 278.484 125.075 278.484 125.075V130.211C278.484 131.014 279.446 133.402 277.359 133.657C275.271 133.912 277.04 138.711 277.04 138.711C277.04 138.711 274.793 141.446 275.276 142.722C275.759 143.998 274.314 146.568 274.314 146.568C274.314 146.568 272.55 149.134 272.71 149.617C272.869 150.1 270.782 151.864 271.265 152.985C271.748 154.106 268.859 155.551 269.342 156.836C269.825 158.121 267.287 158.759 267.287 158.759L260.359 174.802C260.359 174.802 274.916 177.992 278.703 186.027L297.088 152.342C297.088 152.342 307.356 127.162 307.675 125.558C307.994 123.954 305.428 118.18 305.428 118.18L292.918 95.3924L274.155 68.9363C274.155 68.9363 259.233 37.1798 236.3 61.3982Z" fill="#5DC7D1"/>
<g opacity="0.1">
<path opacity="0.1" d="M141.564 69.2918C141.396 67.2998 140.967 65.3386 140.288 63.4582C139.627 61.6352 138.725 59.8396 138.511 57.9026C138.511 57.8434 138.511 57.7887 138.511 57.7294C138.463 58.2144 138.463 58.7029 138.511 59.1878C138.725 61.1248 139.627 62.9067 140.288 64.7434C140.967 66.6222 141.396 68.5819 141.564 70.5724C141.628 71.3198 141.655 72.0764 141.664 72.8511C141.678 71.6434 141.664 70.463 141.564 69.2918Z" fill="black"/>
<path opacity="0.1" d="M157.251 89.2626C156.271 91.4137 153.295 91.7555 151.016 91.122C149.071 90.5645 147.286 89.5533 145.807 88.1716C144.329 86.7899 143.2 85.077 142.512 83.1738C141.879 81.2152 141.571 79.166 141.601 77.1078C141.573 79.619 141.669 82.0982 142.512 84.4544C143.199 86.3583 144.329 88.0719 145.807 89.4544C147.285 90.837 149.071 91.8489 151.016 92.4072C153.295 93.0362 156.271 92.6989 157.251 90.5432C157.666 89.6317 157.625 88.5744 157.606 87.5353C157.598 88.1283 157.477 88.7144 157.251 89.2626Z" fill="black"/>
<path opacity="0.1" d="M201.531 59.3018C201.335 60.7602 200.757 62.4009 199.367 62.8885C198.556 63.1148 197.691 63.0337 196.937 62.6607C194.659 61.6671 192.631 59.2699 190.197 59.8487C188.21 60.3044 187.257 62.5513 186.733 64.5292C186.353 65.779 186.188 67.0843 186.246 68.3894C186.333 67.517 186.496 66.6539 186.733 65.8099C187.257 63.8365 188.21 61.6033 190.197 61.1293C192.631 60.5551 194.64 62.9523 196.937 63.9413C197.69 64.3176 198.556 64.4004 199.367 64.1737C200.757 63.6861 201.335 62.0454 201.531 60.5824C201.657 59.6507 201.702 58.71 201.668 57.7705C201.645 58.2809 201.6 58.7959 201.531 59.3018Z" fill="black"/>
<path opacity="0.1" d="M188.976 77.8689C187.608 78.8579 185.753 77.8051 184.254 77.0167C182.65 76.1736 180.608 75.6494 179.081 76.6202C178.557 76.9483 178.133 77.4223 177.623 77.7732C176.572 78.4229 175.327 78.6811 174.104 78.5024C171.201 78.2062 170.117 76.3695 167.906 74.9476C166.284 73.9039 162.893 73.4573 161.927 75.5993C161.695 76.2299 161.631 76.9098 161.74 77.5727C161.77 77.3357 161.833 77.1041 161.927 76.8845C162.898 74.738 166.284 75.1846 167.906 76.2328C170.117 77.6547 171.201 79.4914 174.104 79.7876C175.327 79.9626 176.572 79.7029 177.623 79.0539C178.133 78.7075 178.557 78.2335 179.081 77.9054C180.622 76.9483 182.65 77.4496 184.254 78.3019C185.753 79.0858 187.599 80.1249 188.976 79.1496C189.778 78.5753 189.969 77.5545 189.791 76.5473C189.698 77.0757 189.406 77.5484 188.976 77.8689Z" fill="black"/>
<path opacity="0.1" d="M161.622 80.0839C160.997 81.5149 159.079 81.9068 158.194 83.1966C157.534 84.1537 157.588 85.3477 157.611 86.5463C157.603 85.8164 157.805 85.0995 158.194 84.4818C159.079 83.192 160.997 82.7955 161.622 81.3645C161.84 80.7418 161.9 80.0745 161.795 79.423C161.767 79.65 161.708 79.8723 161.622 80.0839Z" fill="black"/>
</g>
</g>
<defs>
<linearGradient id="paint0_linear_145:2" x1="235.111" y1="357.912" x2="235.111" y2="33.0553" gradientUnits="userSpaceOnUse">
<stop stop-color="#808080" stop-opacity="0.25"/>
<stop offset="0.54" stop-color="#808080" stop-opacity="0.12"/>
<stop offset="1" stop-color="#808080" stop-opacity="0.1"/>
</linearGradient>
<clipPath id="clip0_145:2">
<rect width="500" height="360.446" fill="white"/>
</clipPath>
</defs>
</svg>
